<svg version="1.0" xmlns="http://www.w3.org/2000/svg" width="1194.667" height="1194.667" viewBox="0 0 896 896"><path d="M223.7 64.6c-.2.2-3 .6-6.3.8-3.2.3-6.1.6-6.4.7-.7.3-7.8 1.4-15 2.4-.3 0-1.1.4-1.7.8-.7.5-1.3.6-1.3.3 0-.8-24.1 6-34 9.6-8.5 3.2-22.5 9.2-27.3 11.9-1 .6-3.7 2-6 3.1-5.1 2.6-29.4 18.3-32.2 20.9-1.1 1-4.9 4.1-8.5 7-9.7 7.8-25.9 24.5-35.7 36.9-1.5 1.9-3 3.7-3.3 4-.3.3-.9 1.2-1.5 2.1-.5.9-2.6 4.1-4.7 7-9.6 14.1-22.6 39.8-25.3 49.9-.1.3-.7 1.8-1.4 3.4-.6 1.6-1.3 3.6-1.5 4.5-.2.9-.5 2.3-.9 3.1-1 2.9-3.5 11.5-4.1 14.5-1.3 6.3-1.9 9.1-2.1 11-.2 1.1-.4 2-.5 2-.3 0-1.7 9.5-2.8 18.5-1.8 15.3-.5 54.1 2.4 69 .3 1.4.8 3.8 1.1 5.5.3 1.6.6 3.4.8 4 .3 1.7 1.6 7.9 2 10 .2 1.1.4 2 .5 2 .2 0 .3.8 1.3 5.5.3 1.4 2 7 3.7 12.5 1.7 5.5 3.3 10.8 3.5 11.8.2.9.7 2.3 1.2 3 .4.6.8 1.8.9 2.5.2.8.6 2.1 1 3 .4.9.8 2.4 1 3.2.2.8.7 2.3 1.3 3.5.5 1.1 2 4.5 3.2 7.5C29 432.1 34 443.1 40 455c7.9 15.6 9.5 18.5 10.3 18.8.4.2.7.8.7 1.3 0 1 14.3 25 17.5 29.4 1.2 1.6 2.5 3.8 2.8 4.7.4 1 1.1 1.8 1.7 1.8.5 0 1 .5 1 1 0 1.1 2.7 5.2 7.2 10.9 1.5 1.9 2.5 3.8 2.2 4.3-.3.4-.1.8.4.8s2.2 1.9 3.8 4.2c1.6 2.4 3.1 4.5 3.4 4.8.3.3 5.2 6.5 11 13.9 5.7 7.4 11.4 14.6 12.6 16 1.3 1.4 5.6 6.4 9.6 11.1 9.3 10.8 7.5 8.8 20.8 23 17 18.2 46.5 47.2 59.6 58.7 1.1 1 4.9 4.3 8.4 7.3s7 6.3 7.9 7.2c.8 1 1.8 1.8 2.2 1.8.3 0 2.8 2 5.5 4.5 4.2 3.8 25.3 21.2 33.4 27.5 1.4 1.1 7.3 5.7 13.1 10.2 5.8 4.6 11.7 9.1 13 10.1 1.3.9 8.3 6 15.4 11.2 7.2 5.2 13.5 9.8 14 10.3.6.4 5.3 3.7 10.5 7.2 5.2 3.6 10.1 7 10.8 7.7.7.7 1.7 1.3 2.1 1.3.4 0 1.7.9 2.9 2 1.2 1.2 2.2 1.7 2.2 1.3 0-.4.4-.3.8.2.8 1.2 12.9 9.5 13.7 9.5.3 0 1.1.5 1.8 1.1 3.6 3.3 59.9 37.9 61.6 37.9.6 0 1.1.4 1.1.8s1.5 1.5 3.3 2.3c1.7.9 6.9 3.7 11.5 6.3l8.2 4.7 17.2-9.8c23.9-13.7 24.7-14.1 30.3-17.7 2.8-1.7 6.2-3.8 7.8-4.6 1.5-.7 2.7-1.7 2.7-2.2 0-.4.5-.8 1-.8.9 0 12.4-7.2 25.8-16.1 2.4-1.6 4.7-2.9 5.2-2.9.4 0 1-.4 1.2-.8.2-.5 4.4-3.5 9.3-6.7 5-3.2 9.2-6.1 9.5-6.4.3-.3 4.8-3.5 10-7.1 5.2-3.5 9.7-6.8 9.8-7.2.2-.4 1-.8 1.7-.8.8 0 1.8-.6 2.2-1.3.4-.6 2.8-2.6 5.3-4.2 2.5-1.7 5.1-3.6 5.8-4.2.7-.7 1.6-1.3 2-1.3.4 0 1.9-1 3.4-2.3 6-5 6.8-5.7 7.3-5.7.3 0 1.3-.7 2.2-1.5 1-.8 7.7-6 14.8-11.5 15-11.6 18.5-14.4 23.5-18.5 2-1.7 5.6-4.6 8-6.5 2.4-1.9 4.8-4 5.4-4.5.6-.6 4-3.5 7.6-6.5 3.6-3 7-6 7.6-6.5.6-.6 4.2-3.7 7.9-7 22.5-19.8 54.1-50.4 70.5-68.4 3.6-4 7.9-8.6 9.5-10.4 1.7-1.8 5.5-6.1 8.5-9.6s6-6.9 6.5-7.5c.6-.6 3.8-4.5 7-8.6 3.3-4.1 6.3-7.7 6.6-8 .3-.3 4.1-5.2 8.5-11 4.3-5.8 8.1-10.7 8.4-11 .6-.6 5.3-7.4 12.1-17.5 3-4.4 5.6-8.2 5.9-8.5.6-.5 9.8-15.2 11.6-18.5.6-1.1 3.5-6.1 6.4-11 6.2-10.8 15-27.8 15-29.3 0-.6.4-1.2.8-1.4.8-.3 14.2-30.9 14.6-33.2.1-.6.4-1.6.8-2.1 1.5-2.5 11.6-35.9 13.2-43.5 6.2-29.9 7-36.5 7-62.5 0-23.5-.8-33.2-4.6-50.5-1.1-5.2-2.1-10-2.2-10.5-.2-.6-.9-3-1.6-5.5-.7-2.5-1.5-5.2-1.7-6-.6-2.3-.9-3.3-2.1-6.3-.7-1.6-1.2-3.3-1.2-3.8 0-.6-.5-2-1.2-3.2-.7-1.2-1.3-2.7-1.4-3.3-.3-2-8.3-19.2-12.8-27.9-11.5-21.7-31.5-46.4-50.6-62.5-3.6-3-6.7-5.7-7-6.1-1.3-1.4-18.4-13.3-25.5-17.7-7.9-4.8-27.2-14.8-33-17-10.8-4.1-14.8-5.6-21-7.7-7.3-2.4-17.2-5.3-21.5-6.1-1.4-.2-3.6-.7-5-1.1-1.4-.4-3.6-.7-5-.9-1.4-.1-2.6-.3-2.7-.4-.2-.1-.7-.4-1.3-.5-.5-.1-1.1-.3-1.2-.4-.2-.1-2.3-.4-4.8-.6-4.8-.5-10.5-1.3-10.5-1.5 0-.4-16.3-1.1-27-1.2-20.7-.1-35.7 1.7-56.5 6.5-6.7 1.6-22.2 6.5-27.5 8.7-1.6.7-3.5 1.4-4.1 1.5-2.3.5-16.9 7.9-17.6 8.9-.4.6-.8.8-.8.4s-4.2 1.8-9.2 4.8c-23.5 14.2-48.5 36.1-67.9 59.4-7.4 8.9-16.9 21.7-16.9 22.8 0 .5-.7 1.2-1.5 1.6-.8.3-1.5.1-1.5-.4s-.6-1.8-1.4-2.7c-.8-1-4.7-6.1-8.6-11.3-11.9-15.9-29-34.3-40.5-43.5-2.8-2.2-5.2-4.3-5.5-4.6-1.1-1.4-14.2-10.9-15-10.9-.4 0-1-.4-1.2-.8-.8-1.9-28.9-18.2-31.4-18.2-.8 0-1.4-.5-1.4-1 0-.6-.7-1-1.5-1s-3-.9-5-2c-1.9-1.1-3.5-1.7-3.5-1.4 0 .4-.7.1-1.5-.6s-1.5-1-1.5-.6-1 0-2.2-.8c-1.3-.8-2.6-1.5-3-1.6-1-.1-3.8-1-6.3-2-3.5-1.4-22.6-6.5-28-7.4-1.6-.3-3.9-.8-5-1-1.1-.2-4.5-.7-7.5-1.1-3-.4-6.4-1-7.5-1.2-2.4-.6-45.2-1.3-45.8-.7zm77.1 74.7c1.2.1 2.2.6 2.2 1 0 .5.4.6.9.3 1.1-.7 14.8 1.8 24.6 4.4 2.2.6 4.9 1.3 6 1.5 6 1 33.8 13.2 43 18.8 8.6 5.3 21.9 14.3 24.5 16.7.9.8 4.1 3.6 7.2 6.3 3.1 2.6 8.9 8.2 12.9 12.4 4.1 4.2 8.2 8.3 9.1 9.1.9.9 1.5 1.9 1.2 2.4-.3.4-.1.8.4.8.6 0 4.2 4.3 8.2 9.5l7.2 9.5 2.5-3.8c2.7-4 8.5-11.5 11.4-14.7 1-1.1 3-3.4 4.5-5 7.3-8.5 16.2-17 25.4-24.5 3-2.5 5.7-4.7 6-5.1 1.9-2.3 30.3-20.5 32-20.6.3 0 3-1.1 6-2.5 12.1-5.5 27.1-10.5 38-12.5 1.4-.2 4.4-.8 6.7-1.4 2.4-.5 4.6-.9 5-.8.5.1 1 0 1.3-.1 3.4-1.4 45.9-1.9 54-.7 1.9.3 5.8.8 8.5 1.2 7.4 1.1 9 1.3 9 1.5 0 .1.9.3 2 .4 1.1.2 4 .9 6.5 1.6 2.5.7 5.6 1.4 7 1.7 5.1.9 23.9 7.7 33.5 12.1 16.5 7.6 33 17.9 47.4 29.6 4.1 3.3 22.3 21.9 25.1 25.5 1.4 1.8 3.5 4.6 4.8 6.1 1.2 1.5 2.2 3.2 2.2 3.8 0 .6.4 1.2.9 1.4 1.1.4 11.4 16.8 10.5 16.8-.3 0 .3 1.2 1.3 2.7 1.1 1.6 3.2 5.7 4.7 9.3 1.5 3.6 3.4 7.8 4.1 9.5 2.4 5.4 8.5 26.6 7.9 27.6-.3.5-.1.9.3.9.5 0 .9.8 1 1.7 0 1 .5 4.9 1.1 8.8.6 3.8 1.4 9.2 1.7 12 .7 5.6.7 29.8 0 36-.2 2.2-.6 5.8-.9 8-.6 5.9-3.5 21.5-4.7 25.1-.5 1.7-1.1 4.1-1.4 5.3-.2 1.2-1.6 6.1-3.1 10.9-1.5 4.8-2.8 8.9-2.9 9.2-.1.3-.7 1.8-1.4 3.5-.7 1.6-1.4 3.4-1.5 4-.3 1-1.4 3.8-4 10.5-.8 1.9-1.7 4.2-2 5-.3.8-1 2.2-1.4 3-.5.8-3.8 7.3-7.3 14.5-6.8 13.9-18.3 33.4-27 46-3 4.3-6.2 8.9-7.1 10.4-2.9 4.4-4.2 6.2-6.3 8.6-2.1 2.5-3.4 4.2-8.7 11.3-1.8 2.3-3.6 4.2-4 4.2-.4 0-.8.5-.8 1.1 0 .6-.6 1.6-1.2 2.3-.7.7-3.1 3.4-5.3 6-6.2 7.5-7.1 8.5-14.8 17.1-9.8 10.8-38.4 39.4-48 48-8.6 7.7-12.6 11.2-17.2 15.4-1.6 1.5-5.7 4.9-9 7.6-3.3 2.7-7 6-8.2 7.2-1.2 1.3-2.6 2.3-3 2.3-.4 0-2.4 1.5-4.4 3.3-2 1.7-5.1 4.3-6.9 5.7-1.9 1.4-4.8 3.7-6.4 5.1-4.9 4-24.6 18.9-25.2 18.9-.3 0-1.4.8-2.5 1.9-1.1 1-4.5 3.6-7.7 5.7-3.1 2.1-5.9 4.2-6.2 4.5-.3.3-10.4 7.2-22.5 15.3-12.1 8.1-22.5 15.1-23.2 15.7-.7.5-2.4 1.4-3.8 2.1-1.4.6-2.5 1.5-2.5 2 0 .4-.5.8-1.2.8-.6 0-2.6 1.1-4.3 2.5-1.8 1.3-3.5 2.1-3.9 1.8-.3-.4-.6-.2-.6.4 0 .6-1.3 1.6-3 2.3-1.6.7-3 1.6-3 2 0 .4-1.1 1.1-2.5 1.4-1.4.4-2.5 1.1-2.5 1.6 0 .6-.4 1-1 1-.5 0-5.4 2.7-10.8 6-5.5 3.3-10.2 6-10.5 6-.3 0-3.4 1.7-6.8 3.8-3.5 2.1-9.4 5.4-13.1 7.2l-6.7 3.5-5.3-2.7c-7.5-3.9-17.5-9.4-30.8-17.3-6.3-3.7-13.1-7.6-15-8.7-1.9-1.1-4.7-2.9-6.2-3.9-1.4-1.1-3.1-1.9-3.6-1.9-.6 0-1.2-.3-1.4-.8-.2-.6-10.8-7.5-22.2-14.5-1.1-.7-2.7-1.7-3.5-2.4-.9-.6-5.9-4-11.1-7.6-5.2-3.5-12.4-8.3-16-10.7-3.6-2.5-6.7-4.7-7-5-.3-.4-2.7-2.2-5.5-4-2.7-1.9-5.6-4-6.5-4.6-.8-.7-6.2-4.8-12-9-12.4-9.2-11.4-8.5-16.6-12.6-2.2-1.8-5.5-4.4-7.3-5.8-1.8-1.4-3.8-3-4.4-3.5-.7-.6-4.8-4-9.2-7.5-9.5-7.7-12.5-10.3-17.8-15.3-2.3-2-5.8-5.2-8-7-10.5-8.5-43.5-40.9-56.7-55.7-4.1-4.6-8.4-9.3-9.6-10.6-1.1-1.2-3.8-4.4-6-7-2.1-2.7-4.3-5.4-4.9-6-2.9-3.3-5.7-7-14.3-18.4-5.2-6.9-10-13.3-10.8-14.3-.8-.9-1.4-1.9-1.4-2.2 0-.2-2-3.2-4.4-6.7-2.3-3.5-5.6-8.5-7.2-11.1-1.6-2.7-3.9-6.5-5.2-8.5-1.3-2.1-2.5-4.5-2.9-5.4-.3-1-1-1.8-1.6-1.8-.6 0-.7-.3-.4-.6.4-.4-.2-1.9-1.2-3.3s-2.6-4.4-3.7-6.6c-1-2.2-2.1-4.2-2.4-4.5-.7-.5-13-28.5-14.5-33-.1-.3-.5-1.2-.8-2-2.6-6.1-10.2-32.2-11.2-38.5-.6-3.1-1.2-6.3-2.1-10.5-.5-2.5-1-6.5-1.9-15-.6-5.6-.6-32-.1-37.5.4-4 2.1-14.7 3.1-19.5 1.1-5.2 1.4-6.6 2.4-9.8.5-1.7.7-3.2.4-3.2-.3 0 0-.7.7-1.5s1-1.5.7-1.5c-.3 0 .6-3 2-6.8 1.4-3.7 2.8-7.6 3.1-8.7 1-3.7 14.4-29.5 15.3-29.5.5 0 .9-.5.9-1.1 0-2.6 16.9-23.9 26-32.8 6.4-6.3 12.5-11.7 17.1-15.3 1.7-1.2 4.3-3.2 5.7-4.4 5.2-4.1 18.7-12.5 26.2-16.2 4.1-2 7.7-4 8-4.3.4-.5 6.8-3.2 8-3.5.7-.1 3.8-1.4 8.5-3.5 8-3.5 27.3-8.7 39-10.5 1.7-.3 4-.7 5.1-.9 1.2-.3 5.7-.8 10-1.1 4.4-.3 8-.7 8.2-.9.2-.2 29.6.5 35 .8z"/></svg>