<?xml version="1.0" standalone="no"?>
<!DOCTYPE svg PUBLIC "-//W3C//DTD SVG 20010904//EN"
 "http://www.w3.org/TR/2001/REC-SVG-20010904/DTD/svg10.dtd">
<svg version="1.0" xmlns="http://www.w3.org/2000/svg"
 width="896.000000pt" height="896.000000pt" viewBox="0 0 896.000000 896.000000"
 preserveAspectRatio="xMidYMid meet">
<metadata>
Created by potrace 1.14, written by Peter Selinger 2001-2017
</metadata>
<g transform="translate(0.000000,896.000000) scale(0.100000,-0.100000)"
fill="#000000" stroke="none">
<path d="M2237 8314 c-2 -2 -30 -6 -63 -8 -32 -3 -61 -6 -64 -7 -7 -3 -78 -14
-150 -24 -3 0 -11 -4 -17 -8 -7 -5 -13 -6 -13 -3 0 8 -241 -60 -340 -96 -85
-32 -225 -92 -273 -119 -10 -6 -37 -20 -60 -31 -51 -26 -294 -183 -322 -209
-11 -10 -49 -41 -85 -70 -97 -78 -259 -245 -357 -369 -15 -19 -30 -37 -33 -40
-3 -3 -9 -12 -15 -21 -5 -9 -26 -41 -47 -70 -96 -141 -226 -398 -253 -499 -1
-3 -7 -18 -14 -34 -6 -16 -13 -36 -15 -45 -2 -9 -5 -23 -9 -31 -10 -29 -35
-115 -41 -145 -13 -63 -19 -91 -21 -110 -2 -11 -4 -20 -5 -20 -3 0 -17 -95
-28 -185 -18 -153 -5 -541 24 -690 3 -14 8 -38 11 -55 3 -16 6 -34 8 -40 3
-17 16 -79 20 -100 2 -11 4 -20 5 -20 2 0 3 -8 13 -55 3 -14 20 -70 37 -125
17 -55 33 -108 35 -118 2 -9 7 -23 12 -30 4 -6 8 -18 9 -25 2 -8 6 -21 10 -30
4 -9 8 -24 10 -32 2 -8 7 -23 13 -35 5 -11 20 -45 32 -75 39 -101 89 -211 149
-330 79 -156 95 -185 103 -188 4 -2 7 -8 7 -13 0 -10 143 -250 175 -294 12
-16 25 -38 28 -47 4 -10 11 -18 17 -18 5 0 10 -5 10 -10 0 -11 27 -52 72 -109
15 -19 25 -38 22 -43 -3 -4 -1 -8 4 -8 5 0 22 -19 38 -42 16 -24 31 -45 34
-48 3 -3 52 -65 110 -139 57 -74 114 -146 126 -160 13 -14 56 -64 96 -111 93
-108 75 -88 208 -230 170 -182 465 -472 596 -587 11 -10 49 -43 84 -73 35 -30
70 -63 79 -72 8 -10 18 -18 22 -18 3 0 28 -20 55 -45 42 -38 253 -212 334
-275 14 -11 73 -57 131 -102 58 -46 117 -91 130 -101 13 -9 83 -60 154 -112
72 -52 135 -98 140 -103 6 -4 53 -37 105 -72 52 -36 101 -70 108 -77 7 -7 17
-13 21 -13 4 0 17 -9 29 -20 12 -12 22 -17 22 -13 0 4 4 3 8 -2 8 -12 129 -95
137 -95 3 0 11 -5 18 -11 36 -33 599 -379 616 -379 6 0 11 -4 11 -8 0 -4 15
-15 33 -23 17 -9 69 -37 115 -63 l82 -47 172 98 c239 137 247 141 303 177 28
17 62 38 78 46 15 7 27 17 27 22 0 4 5 8 10 8 9 0 124 72 258 161 24 16 47 29
52 29 4 0 10 4 12 8 2 5 44 35 93 67 50 32 92 61 95 64 3 3 48 35 100 71 52
35 97 68 98 72 2 4 10 8 17 8 8 0 18 6 22 13 4 6 28 26 53 42 25 17 51 36 58
42 7 7 16 13 20 13 4 0 19 10 34 23 60 50 68 57 73 57 3 0 13 7 22 15 10 8 77
60 148 115 150 116 185 144 235 185 20 17 56 46 80 65 24 19 48 40 54 45 6 6
40 35 76 65 36 30 70 60 76 65 6 6 42 37 79 70 225 198 541 504 705 684 36 40
79 86 95 104 17 18 55 61 85 96 30 35 60 69 65 75 6 6 38 45 70 86 33 41 63
77 66 80 3 3 41 52 85 110 43 58 81 107 84 110 6 6 53 74 121 175 30 44 56 82
59 85 6 5 98 152 116 185 6 11 35 61 64 110 62 108 150 278 150 293 0 6 4 12
8 14 8 3 142 309 146 332 1 6 4 16 8 21 15 25 116 359 132 435 62 299 70 365
70 625 0 235 -8 332 -46 505 -11 52 -21 100 -22 105 -2 6 -9 30 -16 55 -7 25
-15 52 -17 60 -6 23 -9 33 -21 63 -7 16 -12 33 -12 38 0 6 -5 20 -12 32 -7 12
-13 27 -14 33 -3 20 -83 192 -128 279 -115 217 -315 464 -506 625 -36 30 -67
57 -70 61 -13 14 -184 133 -255 177 -79 48 -272 148 -330 170 -108 41 -148 56
-210 77 -73 24 -172 53 -215 61 -14 2 -36 7 -50 11 -14 4 -36 7 -50 9 -14 1
-26 3 -27 4 -2 1 -7 4 -13 5 -5 1 -11 3 -12 4 -2 1 -23 4 -48 6 -48 5 -105 13
-105 15 0 4 -163 11 -270 12 -207 1 -357 -17 -565 -65 -67 -16 -222 -65 -275
-87 -16 -7 -35 -14 -41 -15 -23 -5 -169 -79 -176 -89 -4 -6 -8 -8 -8 -4 0 4
-42 -18 -92 -48 -235 -142 -485 -361 -679 -594 -74 -89 -169 -217 -169 -228 0
-5 -7 -12 -15 -16 -8 -3 -15 -1 -15 4 0 5 -6 18 -14 27 -8 10 -47 61 -86 113
-119 159 -290 343 -405 435 -28 22 -52 43 -55 46 -11 14 -142 109 -150 109 -4
0 -10 4 -12 8 -8 19 -289 182 -314 182 -8 0 -14 5 -14 10 0 6 -7 10 -15 10 -8
0 -30 9 -50 20 -19 11 -35 17 -35 14 0 -4 -7 -1 -15 6 -8 7 -15 10 -15 6 0 -4
-10 0 -22 8 -13 8 -26 15 -30 16 -10 1 -38 10 -63 20 -35 14 -226 65 -280 74
-16 3 -39 8 -50 10 -11 2 -45 7 -75 11 -30 4 -64 10 -75 12 -24 6 -452 13
-458 7z m771 -747 c12 -1 22 -6 22 -10 0 -5 4 -6 9 -3 11 7 148 -18 246 -44
22 -6 49 -13 60 -15 60 -10 338 -132 430 -188 86 -53 219 -143 245 -167 9 -8
41 -36 72 -63 31 -26 89 -82 129 -124 41 -42 82 -83 91 -91 9 -9 15 -19 12
-24 -3 -4 -1 -8 4 -8 6 0 42 -43 82 -95 l72 -95 25 38 c27 40 85 115 114 147
10 11 30 34 45 50 73 85 162 170 254 245 30 25 57 47 60 51 19 23 303 205 320
206 3 0 30 11 60 25 121 55 271 105 380 125 14 2 44 8 67 14 24 5 46 9 50 8 5
-1 10 0 13 1 34 14 459 19 540 7 19 -3 58 -8 85 -12 74 -11 90 -13 90 -15 0
-1 9 -3 20 -4 11 -2 40 -9 65 -16 25 -7 56 -14 70 -17 51 -9 239 -77 335 -121
165 -76 330 -179 474 -296 41 -33 223 -219 251 -255 14 -18 35 -46 48 -61 12
-15 22 -32 22 -38 0 -6 4 -12 9 -14 11 -4 114 -168 105 -168 -3 0 3 -12 13
-27 11 -16 32 -57 47 -93 15 -36 34 -78 41 -95 24 -54 85 -266 79 -276 -3 -5
-1 -9 3 -9 5 0 9 -8 10 -17 0 -10 5 -49 11 -88 6 -38 14 -92 17 -120 7 -56 7
-298 0 -360 -2 -22 -6 -58 -9 -80 -6 -59 -35 -215 -47 -251 -5 -17 -11 -41
-14 -53 -2 -12 -16 -61 -31 -109 -15 -48 -28 -89 -29 -92 -1 -3 -7 -18 -14
-35 -7 -16 -14 -34 -15 -40 -3 -10 -14 -38 -40 -105 -8 -19 -17 -42 -20 -50
-3 -8 -10 -22 -14 -30 -5 -8 -38 -73 -73 -145 -68 -139 -183 -334 -270 -460
-30 -43 -62 -89 -71 -104 -29 -44 -42 -62 -63 -86 -21 -25 -34 -42 -87 -113
-18 -23 -36 -42 -40 -42 -4 0 -8 -5 -8 -11 0 -6 -6 -16 -12 -23 -7 -7 -31 -34
-53 -60 -62 -75 -71 -85 -148 -171 -98 -108 -384 -394 -480 -480 -86 -77 -126
-112 -172 -154 -16 -15 -57 -49 -90 -76 -33 -27 -70 -60 -82 -72 -12 -13 -26
-23 -30 -23 -4 0 -24 -15 -44 -33 -20 -17 -51 -43 -69 -57 -19 -14 -48 -37
-64 -51 -49 -40 -246 -189 -252 -189 -3 0 -14 -8 -25 -19 -11 -10 -45 -36 -77
-57 -31 -21 -59 -42 -62 -45 -3 -3 -104 -72 -225 -153 -121 -81 -225 -151
-232 -157 -7 -5 -24 -14 -38 -21 -14 -6 -25 -15 -25 -20 0 -4 -5 -8 -12 -8 -6
0 -26 -11 -43 -25 -18 -13 -35 -21 -39 -18 -3 4 -6 2 -6 -4 0 -6 -13 -16 -30
-23 -16 -7 -30 -16 -30 -20 0 -4 -11 -11 -25 -14 -14 -4 -25 -11 -25 -16 0 -6
-4 -10 -10 -10 -5 0 -54 -27 -108 -60 -55 -33 -102 -60 -105 -60 -3 0 -34 -17
-68 -38 -35 -21 -94 -54 -131 -72 l-67 -35 -53 27 c-75 39 -175 94 -308 173
-63 37 -131 76 -150 87 -19 11 -47 29 -62 39 -14 11 -31 19 -36 19 -6 0 -12 3
-14 8 -2 6 -108 75 -222 145 -11 7 -27 17 -35 24 -9 6 -59 40 -111 76 -52 35
-124 83 -160 107 -36 25 -67 47 -70 50 -3 4 -27 22 -55 40 -27 19 -56 40 -65
46 -8 7 -62 48 -120 90 -124 92 -114 85 -166 126 -22 18 -55 44 -73 58 -18 14
-38 30 -44 35 -7 6 -48 40 -92 75 -95 77 -125 103 -178 153 -23 20 -58 52 -80
70 -105 85 -435 409 -567 557 -41 46 -84 93 -96 106 -11 12 -38 44 -60 70 -21
27 -43 54 -49 60 -29 33 -57 70 -143 184 -52 69 -100 133 -108 143 -8 9 -14
19 -14 22 0 2 -20 32 -44 67 -23 35 -56 85 -72 111 -16 27 -39 65 -52 85 -13
21 -25 45 -29 54 -3 10 -10 18 -16 18 -6 0 -7 3 -4 6 4 4 -2 19 -12 33 -10 14
-26 44 -37 66 -10 22 -21 42 -24 45 -7 5 -130 285 -145 330 -1 3 -5 12 -8 20
-26 61 -102 322 -112 385 -6 31 -12 63 -21 105 -5 25 -10 65 -19 150 -6 56 -6
320 -1 375 4 40 21 147 31 195 11 52 14 66 24 98 5 17 7 32 4 32 -3 0 0 7 7
15 7 8 10 15 7 15 -3 0 6 30 20 68 14 37 28 76 31 87 10 37 144 295 153 295 5
0 9 5 9 11 0 26 169 239 260 328 64 63 125 117 171 153 17 12 43 32 57 44 52
41 187 125 262 162 41 20 77 40 80 43 4 5 68 32 80 35 7 1 38 14 85 35 80 35
273 87 390 105 17 3 40 7 51 9 12 3 57 8 100 11 44 3 80 7 82 9 2 2 296 -5
350 -8z"/>
</g>
</svg>
